<svg xmlns="http://www.w3.org/2000/svg" width="13.035" height="13.035" viewBox="0 0 13.035 13.035"><g transform="translate(-2.1 -2.1)"><path d="M18.1,9.91V18.1H9.91V9.91H18.1m0-.91H9.91A.91.91,0,0,0,9,9.91V18.1a.91.91,0,0,0,.91.91H18.1a.91.91,0,0,0,.91-.91V9.91A.91.91,0,0,0,18.1,9Z" transform="translate(-4.021 -4.021)" fill="#1bb6f0" stroke="#1bb6f0" stroke-width="0.3"/><path d="M3.16,9.527H2.25V3.16a.91.91,0,0,1,.91-.91H9.527v.91H3.16Z" transform="translate(0 0)" fill="#1bb6f0" stroke="#1bb6f0" stroke-width="0.3"/></g></svg>