<svg xmlns="http://www.w3.org/2000/svg" width="27" height="27" viewBox="0 0 27 27">
  <g id="discord" transform="translate(0 -0.494)">
    <circle id="Ellipse_538" data-name="Ellipse 538" cx="13.5" cy="13.5" r="13.5" transform="translate(0 0.494)" fill="#5c6bc0"/>
    <path id="Path_3511" data-name="Path 3511" d="M722.949,468.587a25.776,25.776,0,0,0-2.291-8.076,3.564,3.564,0,0,0-1.729-1.573l-.016-.045-.642-.286-.112-.03c-.551-.168-1.1-.358-1.656-.5a7.852,7.852,0,0,0-1.151-.154.575.575,0,0,0-.131,0c-.145.021-.224.106-.219.223a.284.284,0,0,0,.015.079c.692.242,1.383.483,2.073.729.16.057.312.134.468.2l.765.433.276.2h0l0,0,.214.158-.047.079-.662-.23a18.6,18.6,0,0,0-6.415-1.113,18.991,18.991,0,0,0-6.291,1.458l-.01,0c-.077.028-.152.062-.229.093l-.042-.081c.546-.318,1.078-.667,1.643-.946.62-.305,1.271-.546,1.91-.815l.761-.222-.277-.28-.341.054c-.135.008-.271,0-.4.024a9.709,9.709,0,0,0-3.867,1.461,1.627,1.627,0,0,0-.654.729,32.491,32.491,0,0,0-1.7,4.659,22.561,22.561,0,0,0-.541,2.54,5.424,5.424,0,0,0-.134,2.266,1.635,1.635,0,0,0,.482.623,9.229,9.229,0,0,0,4.578,1.931.842.842,0,0,0,.985-.4c.222-.328.491-.625.753-.948l.027-.033-.342-.146-.357-.112-.209-.066-.77-.375c-.112-.073-.225-.147-.336-.222-.158-.107-.314-.217-.465-.337a4.061,4.061,0,0,1-.673-.66l1.854.894.76.315.488.184c.768.158,1.536.317,2.3.47a2.042,2.042,0,0,0,.351.01l.872-.893-.872.894.922.06.058-.018c.343,0,.686.016,1.029,0a10.883,10.883,0,0,0,3.47-.655l1.5-.6.524-.3.019-.031-.018.032.634-.325.04.06q-.051.058-.105.114a4.987,4.987,0,0,1-1.562,1.118l-.272.165-1.118.416.019.029.236.353.1.079c.193.238.4.465.574.715a.508.508,0,0,0,.517.249,8.786,8.786,0,0,0,4.968-2.081,1.648,1.648,0,0,0,.448-.595,1.8,1.8,0,0,0,.036-.847C722.959,468.668,722.954,468.627,722.949,468.587Zm-15-.826a1.941,1.941,0,0,1-.91-1.332,2.167,2.167,0,0,1,.172-1.158,1.831,1.831,0,0,1,3.186-.272l0,0a2.982,2.982,0,0,1,.37,1,4.268,4.268,0,0,1-.073.615,1.874,1.874,0,0,1-2.075,1.39h0a2.244,2.244,0,0,1-.672-.249Zm7.036.15a1.833,1.833,0,0,1-1.221-1.09,1.92,1.92,0,0,1,1.476-2.566,1.886,1.886,0,0,1,1.989,2.563A1.861,1.861,0,0,1,714.981,467.91Zm3.651,1.063-.028.03.027-.031.862-.865Z" transform="translate(-698.882 -451.757)" fill="#fff"/>
  </g>
</svg>
