<svg xmlns="http://www.w3.org/2000/svg" width="17" height="17" viewBox="0 0 17 17"><g transform="translate(-219.377 -213.516)"><g transform="translate(219.377 213.516)"><path d="M222.908,221.754a.744.744,0,0,1,.212-.521.712.712,0,0,1,.511-.214l1.2,0a.729.729,0,0,1,.721.737v4.635c.135-.041.308-.085.5-.13a.611.611,0,0,0,.463-.6v-5.749a.729.729,0,0,1,.721-.737h1.2a.729.729,0,0,1,.721.737v5.336s.3-.124.594-.251a.616.616,0,0,0,.367-.566v-6.362a.729.729,0,0,1,.721-.737h1.2a.729.729,0,0,1,.72.737v5.239A14.222,14.222,0,0,0,235.7,220.5a1.259,1.259,0,0,0,.184-1.155,8.531,8.531,0,0,0-6.944-5.757,8.419,8.419,0,0,0-8.135,3.792,8.837,8.837,0,0,0-.3,9.133,1.067,1.067,0,0,0,1.024.542c.227-.02.51-.049.847-.09a.609.609,0,0,0,.532-.609v-4.6" transform="translate(-219.377 -213.516)" fill="#21325b"/><path d="M244.417,277.461a8.678,8.678,0,0,0,13.783-7.019c0-.2-.009-.4-.023-.594-3.171,4.729-9.025,6.94-13.76,7.613" transform="translate(-241.2 -262.121)" fill="#979695"/></g></g></svg>