<svg xmlns="http://www.w3.org/2000/svg" width="27" height="27" viewBox="0 0 27 27">
  <g id="Group_1178" data-name="Group 1178" transform="translate(0 -0.494)">
    <circle id="Ellipse_537" data-name="Ellipse 537" cx="13.5" cy="13.5" r="13.5" transform="translate(0 0.494)" fill="#f74100"/>
    <path id="Path_3510" data-name="Path 3510" d="M180.189,394.088a7.521,7.521,0,0,1,2.632-1.112,11.028,11.028,0,0,1,1.263-.17c.179-.015.232-.093.264-.246.226-1.088.457-2.174.685-3.262.082-.391.2-.467.6-.387.741.147,1.483.285,2.222.441a.272.272,0,0,0,.309-.1,1.033,1.033,0,0,1,1.252-.28,1.069,1.069,0,0,1,.616,1.082,1.057,1.057,0,0,1-.9.944,1.046,1.046,0,0,1-1.161-.718.33.33,0,0,0-.3-.265c-.656-.127-1.307-.274-2-.422l-.677,3.248c.4.05.774.084,1.147.147a7.178,7.178,0,0,1,2.724,1.062.25.25,0,0,0,.338-.008,1.552,1.552,0,0,1,2.174.349,1.521,1.521,0,0,1-.393,2.161.383.383,0,0,0-.153.261,3.808,3.808,0,0,1-1.8,3.311,7.1,7.1,0,0,1-3.394,1.229,8.2,8.2,0,0,1-4.4-.668,5.289,5.289,0,0,1-2.063-1.594,3.517,3.517,0,0,1-.712-2.216.408.408,0,0,0-.128-.3,1.553,1.553,0,1,1,1.75-2.565C180.109,394.03,180.137,394.051,180.189,394.088Zm7.887,2.287a1.023,1.023,0,0,0-1.051-1.076A1.034,1.034,0,0,0,186,396.35a1.063,1.063,0,0,0,1.078,1.069A.951.951,0,0,0,188.076,396.375Zm-5.936.954a1.039,1.039,0,1,0,.006-2.078,1.039,1.039,0,0,0-.006,2.078ZM184.629,400a4.023,4.023,0,0,0,2.466-.721c.15-.1.279-.22.16-.4s-.282-.139-.455-.033a3.869,3.869,0,0,1-4.348-.008c-.17-.105-.331-.15-.45.041s-.007.3.149.407A4.077,4.077,0,0,0,184.629,400Z" transform="translate(-171.204 -381.722)" fill="#fff"/>
  </g>
</svg>
